# xmcd
#
# Track frame offsets:
#	150
#	17890
#	33346
#	47171
#	61539
#	75847
#	84992
#	102132
#	118268
#	138439
#	152358
#	172550
#
# Disc length: 2519 seconds
#
# Revision: 0
# Processed by: cddbd v1.5.2PL0 Copyright (c) Steve Scherf et al.
# Submitted via: EasyCDDAExtractor 16.0.8.2
#
DISCID=7b09d50c
DTITLE=Καρναβάς Τάκης - Αυθεντικά δημοτικά τραγούδια-Τ. Καρναβάς
DYEAR=2004
DGENRE=Παραδοσιακή
TTITLE0=Κόβω μιά κλάρα [τσάμικος]
TTITLE1=Μαυριδερούλα [τσάμικος]
TTITLE2=Ο Βλαχοθανάσης [τσάμικος]
TTITLE3=Μάννα μ' στο περιβόλι σου [καγκέλι]
TTITLE4=Νεραντζούλα φουντωμένη [τσάμ.]
TTITLE5=Γιάνναινα, Γιαννάκαινα [καλαματ.]
TTITLE6=Σαράντα μέρες περπατώ [τσάμικος]
TTITLE7=Αγάπα με πουλάκι μου [τσάμικος]
TTITLE8=Μαράθηκε, κιτρολεμονιά [τσάμικος]
TTITLE9=Ένας αητός καθότανε [καλαματιανός]
TTITLE10=Τρυγόνα ορφανή [τσάμικος]
TTITLE11=Ξενητεμένο μου πουλί [καθιστικό]
EXTD=
EXTT0=
EXTT1=
EXTT2=
EXTT3=
EXTT4=
EXTT5=
EXTT6=
EXTT7=
EXTT8=
EXTT9=
EXTT10=
EXTT11=
PLAYORDER=
